<svg xmlns="http://www.w3.org/2000/svg" width="28" height="28" viewBox="0 0 28 28" fill="none">
  <path d="M5.75034 19.1085C3.63909 19.7419 2.33325 20.6169 2.33325 21.5834C2.33325 23.5164 7.55659 25.0834 13.9999 25.0834C20.4432 25.0834 25.6666 23.5164 25.6666 21.5834C25.6666 20.6169 24.3607 19.7419 22.2495 19.1085" stroke="#B81C22" stroke-width="1.75"/>
  <path d="M14.0001 20.4167C14.0001 20.4167 21.5834 15.4607 21.5834 9.73109C21.5834 5.64545 18.1882 2.33337 14.0001 2.33337C9.81192 2.33337 6.41675 5.64545 6.41675 9.73109C6.41675 15.4607 14.0001 20.4167 14.0001 20.4167Z" stroke="#B81C22" stroke-width="1.75"/>
  <path d="M13.9999 12.8333C15.6107 12.8333 16.9166 11.5275 16.9166 9.91667C16.9166 8.30585 15.6107 7 13.9999 7C12.3891 7 11.0833 8.30585 11.0833 9.91667C11.0833 11.5275 12.3891 12.8333 13.9999 12.8333Z" stroke="#B81C22" stroke-width="1.75"/>
</svg>