<svg xmlns="http://www.w3.org/2000/svg" width="205" height="70" viewBox="0 0 205 70" fill="none">
  <path d="M5.958 9.18405H12.006V4.10805C12.006 2.90805 11.982 1.84005 11.934 0.904053C13.998 0.976052 15.45 1.09605 16.29 1.26405C17.154 1.40805 17.586 1.63605 17.586 1.94805C17.586 2.26005 17.25 2.58405 16.578 2.92005V9.18405H22.41C23.01 8.03205 23.418 7.33605 23.634 7.09605C23.85 6.85605 24.114 6.73605 24.426 6.73605C24.738 6.73605 25.41 7.03605 26.442 7.63605C27.474 8.23605 28.278 8.74005 28.854 9.14805C29.43 9.53205 29.718 9.90405 29.718 10.2641C29.718 10.6241 29.262 10.9121 28.35 11.1281V19.9841C28.35 20.3921 28.362 20.7521 28.386 21.0641L28.458 21.8561C28.458 22.0241 28.35 22.1681 28.134 22.2881C27.942 22.4081 27.366 22.5641 26.406 22.7561C25.47 22.9481 24.618 23.0441 23.85 23.0441C23.658 23.0441 23.526 23.0081 23.454 22.9361C23.406 22.8641 23.382 22.7201 23.382 22.5041V20.4161H16.578V29.6681C16.578 30.4601 16.59 31.3001 16.614 32.1881L16.686 33.4121C16.686 33.5801 16.65 33.7001 16.578 33.7721C16.53 33.8441 16.254 33.9641 15.75 34.1321C15.27 34.3001 14.61 34.4561 13.77 34.6001C12.954 34.7681 12.414 34.8521 12.15 34.8521C11.982 34.8521 11.898 34.6721 11.898 34.3121L11.97 32.9081C11.994 31.9481 12.006 30.8681 12.006 29.6681V20.4161H5.31V22.1441C5.31 22.2881 5.274 22.4081 5.202 22.5041C5.13 22.5761 4.866 22.6841 4.41 22.8281C3.978 22.9481 3.378 23.0681 2.60999 23.1881C1.86599 23.2841 1.26599 23.3321 0.809995 23.3321C0.641995 23.3321 0.569995 23.2121 0.593995 22.9721C0.641995 22.4201 0.665995 21.5321 0.665995 20.3081V10.3721C0.665995 9.36405 0.629995 8.34405 0.557995 7.31205C2.718 7.86405 4.518 8.48805 5.958 9.18405ZM12.006 10.3721H6.174C6.006 10.6361 5.718 10.8161 5.31 10.9121V19.2281H12.006V10.3721ZM23.382 19.2281V10.3721H16.578V19.2281H23.382Z" fill="#B81C22"/>
  <path d="M47.034 4.18005H66.438C66.75 3.48405 67.014 2.94405 67.23 2.56005C67.47 2.15205 67.626 1.91205 67.698 1.84005C67.794 1.76805 67.902 1.73205 68.022 1.73205C68.214 1.73205 68.934 2.09205 70.182 2.81205C71.454 3.53205 72.258 4.04805 72.594 4.36005C72.93 4.64805 73.098 4.91205 73.098 5.15205C73.098 5.39205 72.762 5.65605 72.09 5.94405V29.5961C72.09 30.7241 72.102 31.5041 72.126 31.9361L72.162 33.1601C72.162 33.3761 72.078 33.5441 71.91 33.6641C71.742 33.7841 71.166 33.9281 70.182 34.0961C69.222 34.2881 68.49 34.3841 67.986 34.3841C67.77 34.3841 67.662 34.1801 67.662 33.7721V31.5041H46.89V33.3401C46.89 33.4601 46.866 33.5801 46.818 33.7001C46.794 33.8441 46.482 34.0001 45.882 34.1681C45.306 34.3601 44.646 34.5281 43.902 34.6721C43.158 34.8401 42.714 34.9241 42.57 34.9241C42.45 34.9241 42.39 34.8281 42.39 34.6361L42.462 32.9441C42.51 31.7681 42.534 30.7001 42.534 29.7401V5.76405C42.534 4.51605 42.51 3.41205 42.462 2.45205C44.334 3.02805 45.858 3.60405 47.034 4.18005ZM54.414 10.5521H50.346C49.866 10.5521 49.434 10.6841 49.05 10.9481L48.114 9.25605C48.69 9.32805 49.29 9.36405 49.914 9.36405H60.75C61.254 8.45205 61.638 7.82805 61.902 7.49205C62.19 7.13205 62.418 6.95205 62.586 6.95205C62.85 6.95205 63.534 7.43205 64.638 8.39205C65.766 9.32805 66.33 9.92805 66.33 10.1921C66.33 10.4321 66.114 10.5521 65.682 10.5521H59.274C59.13 10.8161 58.89 11.0081 58.554 11.1281V16.2761H60.534C61.278 15.0281 61.71 14.3201 61.83 14.1521C61.95 13.9841 62.094 13.9001 62.262 13.9001C62.622 13.9001 63.366 14.3681 64.494 15.3041C65.646 16.2401 66.222 16.8401 66.222 17.1041C66.222 17.3441 66.006 17.4641 65.574 17.4641H58.554V25.5641H62.262L62.982 24.2681C61.542 24.3881 60.786 23.7641 60.714 22.3961C60.69 21.5081 60.534 20.7521 60.246 20.1281C59.982 19.5041 59.718 19.1681 59.454 19.1201C59.19 19.0721 59.058 19.0001 59.058 18.9041C59.058 18.8081 59.274 18.7601 59.706 18.7601C60.138 18.7601 60.822 18.8801 61.758 19.1201C62.718 19.3601 63.39 19.6241 63.774 19.9121C64.182 20.1761 64.446 20.4641 64.566 20.7761C64.686 21.0881 64.746 21.5201 64.746 22.0721C64.746 22.6241 64.614 23.0801 64.35 23.4401C65.694 24.2801 66.798 25.1201 67.662 25.9601V5.36805H47.43C47.406 5.56005 47.226 5.72805 46.89 5.87205V30.3161H67.662V26.7521H49.302C48.822 26.7521 48.39 26.8841 48.006 27.1481L47.07 25.4561C47.646 25.5281 48.246 25.5641 48.87 25.5641H54.414V17.4641H50.562C50.082 17.4641 49.65 17.5961 49.266 17.8601L48.33 16.1681C48.906 16.2401 49.506 16.2761 50.13 16.2761H54.414V10.5521Z" fill="#B81C22"/>
  <path d="M106.722 3.53205C108.618 3.58005 109.986 3.88005 110.826 4.43205C111.69 4.96005 112.122 5.68005 112.122 6.59205C112.122 7.21605 111.894 7.72005 111.438 8.10405C110.982 8.48805 110.478 8.68005 109.926 8.68005C109.398 8.68005 108.93 8.48805 108.522 8.10405C108.138 7.72005 107.946 7.32405 107.946 6.91605C107.946 5.66805 107.526 4.74405 106.686 4.14405C106.566 7.21605 106.506 9.10005 106.506 9.79605H111.15C111.438 9.29205 111.774 8.74005 112.158 8.14005C112.566 7.51605 112.806 7.16805 112.878 7.09605C112.95 7.02405 113.034 6.98805 113.13 6.98805C113.418 6.98805 114.234 7.52805 115.578 8.60805C116.946 9.66405 117.63 10.3241 117.63 10.5881C117.63 10.8521 117.414 10.9841 116.982 10.9841H106.506C106.482 15.0401 106.722 18.2201 107.226 20.5241C107.73 22.8041 108.618 24.7961 109.89 26.5001C111.186 28.1801 112.134 29.0201 112.734 29.0201C113.046 29.0201 113.358 28.8041 113.67 28.3721C113.982 27.9161 114.378 27.1721 114.858 26.1401C115.362 25.1081 115.734 24.2441 115.974 23.5481C116.07 23.3081 116.166 23.1881 116.262 23.1881C116.358 23.1881 116.406 23.2481 116.406 23.3681C116.406 23.4881 116.394 23.6081 116.37 23.7281C115.986 25.3841 115.794 26.8841 115.794 28.2281C115.794 29.5481 116.142 30.6761 116.838 31.6121C117.15 32.0441 117.306 32.5001 117.306 32.9801C117.306 33.4601 117.102 33.8681 116.694 34.2041C116.286 34.5641 115.734 34.7441 115.038 34.7441C113.79 34.7441 112.158 34.1201 110.142 32.8721C108.126 31.6481 106.434 29.6201 105.066 26.7881C103.698 23.9321 102.846 20.5721 102.51 16.7081H97.722C97.602 16.9001 97.362 17.0801 97.002 17.2481V26.2121L104.058 25.2041C104.25 25.2041 104.346 25.2521 104.346 25.3481C104.346 25.4441 104.106 25.5881 103.626 25.7801C94.794 29.4761 89.766 31.7321 88.542 32.5481C88.302 32.6921 88.134 32.7641 88.038 32.7641C87.942 32.7641 87.87 32.6921 87.822 32.5481L86.814 30.3161C86.238 28.9481 85.854 28.0001 85.662 27.4721C87.726 27.3041 90.054 27.0641 92.646 26.7521V16.7081H88.578C88.098 16.7081 87.666 16.8401 87.282 17.1041L86.346 15.4121C86.922 15.4841 87.522 15.5201 88.146 15.5201H97.47C98.142 14.3441 98.55 13.6241 98.694 13.3601C98.838 13.0721 98.994 12.9281 99.162 12.9281C99.354 12.9281 99.834 13.2281 100.602 13.8281C101.394 14.4041 101.994 14.8961 102.402 15.3041L102.222 10.9841H86.454C85.974 10.9841 85.542 11.1161 85.158 11.3801L84.222 9.68805C84.798 9.76005 85.398 9.79605 86.022 9.79605H102.222C102.054 4.46805 101.958 1.64805 101.934 1.33605C104.886 1.74405 106.578 2.00805 107.01 2.12805C107.466 2.24805 107.694 2.41605 107.694 2.63205C107.694 2.82405 107.37 3.05205 106.722 3.31605V3.53205Z" fill="#B81C22"/>
  <path d="M135.522 4.07205H150.426C151.05 2.72805 151.554 2.05605 151.938 2.05605C152.322 2.05605 153.234 2.51205 154.674 3.42405C156.138 4.33605 156.87 4.94805 156.87 5.26005C156.87 5.54805 156.354 5.88405 155.322 6.26805C154.866 11.7881 154.638 16.0841 154.638 19.1561C154.638 22.2041 154.95 24.4481 155.574 25.8881C156.222 27.3041 156.822 28.0121 157.374 28.0121C157.542 28.0121 157.698 27.9401 157.842 27.7961C158.01 27.6521 158.25 27.2561 158.562 26.6081C158.874 25.9361 159.162 25.2041 159.426 24.4121C159.69 23.6201 159.858 23.2241 159.93 23.2241C160.026 23.2241 160.074 23.3201 160.074 23.5121C160.074 23.6801 160.026 24.1601 159.93 24.9521C159.834 25.7201 159.786 26.5001 159.786 27.2921C159.786 28.0601 159.846 28.7561 159.966 29.3801C160.11 29.9801 160.422 30.7481 160.902 31.6841C161.07 32.0201 161.154 32.3801 161.154 32.7641C161.154 33.1721 160.962 33.5201 160.578 33.8081C160.218 34.1201 159.738 34.2761 159.138 34.2761C157.818 34.2761 156.366 33.5321 154.782 32.0441C153.222 30.5801 152.118 28.7081 151.47 26.4281C150.822 24.1241 150.498 20.7401 150.498 16.2761C150.498 13.6601 150.606 9.98805 150.822 5.26005H135.774C135.582 5.42805 135.486 5.83605 135.486 6.48405C135.438 12.2681 135.33 16.4201 135.162 18.9401C135.018 21.4361 134.646 23.6561 134.046 25.6001C133.446 27.5441 132.618 29.1761 131.562 30.4961C130.506 31.7921 129.498 32.7881 128.538 33.4841C127.578 34.1801 127.074 34.5281 127.026 34.5281C126.978 34.5281 126.954 34.5161 126.954 34.4921C126.954 34.4201 127.086 34.1801 127.35 33.7721C129.078 31.2521 130.17 28.6481 130.626 25.9601C131.082 23.2481 131.31 19.6841 131.31 15.2681C131.31 10.8281 131.202 6.54405 130.986 2.41605C132.402 2.68005 133.914 3.23205 135.522 4.07205ZM143.19 14.9441C144.03 12.4481 144.558 9.94005 144.774 7.42005C146.094 7.80405 147.198 8.20005 148.086 8.60805C148.974 9.01605 149.514 9.30405 149.706 9.47205C149.922 9.61605 150.03 9.77205 150.03 9.94005C150.03 10.0841 149.838 10.2161 149.454 10.3361C149.19 10.4081 148.842 11.0561 148.41 12.2801C147.594 14.5121 146.766 16.3601 145.926 17.8241C148.446 20.7281 149.706 22.9961 149.706 24.6281C149.706 25.6121 149.478 26.4041 149.022 27.0041C148.566 27.5801 147.99 27.8681 147.294 27.8681C146.598 27.8681 146.094 27.6761 145.782 27.2921C145.494 26.9081 145.29 26.2601 145.17 25.3481C145.05 24.4361 144.534 23.0801 143.622 21.2801C141.918 23.3201 139.914 25.0241 137.61 26.3921C135.33 27.7601 134.022 28.4441 133.686 28.4441C133.638 28.4441 133.614 28.4321 133.614 28.4081C133.614 28.3121 133.746 28.1561 134.01 27.9401C137.322 25.2521 139.926 22.0001 141.822 18.1841C139.83 14.9681 137.862 12.2441 135.918 10.0121C135.822 9.89205 135.774 9.76005 135.774 9.61605C135.774 9.44805 135.834 9.36405 135.954 9.36405C136.146 9.36405 137.082 9.98805 138.762 11.2361C140.442 12.4841 141.918 13.7201 143.19 14.9441Z" fill="#B81C22"/>
  <path d="M180.702 3.20805H193.986C194.322 2.60805 194.598 2.16405 194.814 1.87605C195.03 1.56405 195.21 1.40805 195.354 1.40805C195.618 1.40805 196.266 1.67205 197.298 2.20005C198.354 2.72805 199.134 3.17205 199.638 3.53205C200.166 3.86805 200.43 4.13205 200.43 4.32405C200.43 4.63605 199.986 4.97205 199.098 5.33205V8.21205L199.17 11.6321C199.17 11.8481 199.122 12.0161 199.026 12.1361C198.93 12.2561 198.558 12.4481 197.91 12.7121C197.286 12.9761 196.626 13.1081 195.93 13.1081C195.234 13.1081 194.814 13.0601 194.67 12.9641C194.526 12.8441 194.454 12.6041 194.454 12.2441V12.0281H188.262C188.742 12.2921 189.078 12.5681 189.27 12.8561C189.486 13.1441 189.594 13.5281 189.594 14.0081C189.594 14.4641 189.51 14.8241 189.342 15.0881H198.09C198.354 14.6081 198.702 14.0321 199.134 13.3601C199.59 12.6881 199.878 12.3041 199.998 12.2081C200.118 12.0881 200.238 12.0281 200.358 12.0281C200.646 12.0281 201.474 12.6161 202.842 13.7921C204.21 14.9441 204.894 15.6521 204.894 15.9161C204.894 16.1561 204.642 16.2761 204.138 16.2761H173.07C172.662 16.2761 172.266 16.4081 171.882 16.6721L170.946 14.9801C171.522 15.0521 172.122 15.0881 172.746 15.0881H186.066C185.85 14.7521 185.742 14.2601 185.742 13.6121C185.742 12.9401 185.574 12.4121 185.238 12.0281H180.414C180.414 12.2201 180.078 12.4481 179.406 12.7121C178.734 12.9761 178.098 13.1081 177.498 13.1081C176.898 13.1081 176.526 13.0841 176.382 13.0361C176.262 12.9881 176.202 12.8681 176.202 12.6761L176.274 11.3801C176.322 10.4921 176.346 9.77205 176.346 9.22005V4.90005C176.346 3.84405 176.31 2.80005 176.238 1.76805C177.966 2.24805 179.454 2.72805 180.702 3.20805ZM194.454 6.95205V4.39605H180.954C180.858 4.51605 180.69 4.62405 180.45 4.72005V6.95205H194.454ZM194.454 10.8401V8.14005H180.45V10.8401H194.454ZM180.99 18.4361H193.446C193.638 18.0761 193.866 17.6921 194.13 17.2841C194.394 16.8761 194.55 16.6481 194.598 16.6001C194.67 16.5521 194.754 16.5281 194.85 16.5281C195.09 16.5281 195.666 16.7681 196.578 17.2481C197.49 17.7281 198.198 18.1481 198.702 18.5081C199.206 18.8681 199.458 19.1201 199.458 19.2641C199.458 19.5281 199.074 19.8041 198.306 20.0921V22.2161C198.306 22.6241 198.318 22.9841 198.342 23.2961L198.414 24.0881C198.414 24.4001 198.006 24.6761 197.19 24.9161C196.374 25.1321 195.69 25.2401 195.138 25.2401C194.586 25.2401 194.238 25.2281 194.094 25.2041C193.95 25.1561 193.878 24.9881 193.878 24.7001V24.0521H190.242C190.098 24.1481 189.966 24.2081 189.846 24.2321V31.4681C189.846 32.3801 189.642 33.0761 189.234 33.5561C188.826 34.0601 188.13 34.4321 187.146 34.6721C186.186 34.9121 185.382 35.0321 184.734 35.0321C184.086 35.0321 183.726 34.6961 183.654 34.0241C183.582 33.1361 183.318 32.5241 182.862 32.1881C182.43 31.8521 181.83 31.5881 181.062 31.3961C180.318 31.2041 179.946 31.0721 179.946 31.0001C179.946 30.9041 180.522 30.8561 181.674 30.8561C182.85 30.8561 183.69 30.8081 184.194 30.7121C184.722 30.6161 185.058 30.4481 185.202 30.2081C185.37 29.9681 185.454 29.5721 185.454 29.0201V24.0521H180.846C180.87 24.1481 180.882 24.2681 180.882 24.4121C180.882 24.5561 180.714 24.7001 180.378 24.8441C180.066 24.9881 179.634 25.1081 179.082 25.2041C179.73 25.4681 180.534 25.8041 181.494 26.2121C182.454 26.6201 182.982 26.8841 183.078 27.0041C183.174 27.1241 183.222 27.2201 183.222 27.2921C183.222 27.5081 183.018 27.6281 182.61 27.6521C182.298 27.6761 181.494 28.0121 180.198 28.6601C177.942 29.8121 175.854 30.7841 173.934 31.5761C172.014 32.3921 170.874 32.8001 170.514 32.8001C170.442 32.8001 170.406 32.7761 170.406 32.7281C170.406 32.6081 170.862 32.2601 171.774 31.6841C172.686 31.1321 173.778 30.2321 175.05 28.9841C176.322 27.7121 177.294 26.5121 177.966 25.3841C177.534 25.4321 177.162 25.4561 176.85 25.4561C176.682 25.4561 176.61 25.3361 176.634 25.0961C176.682 24.5441 176.706 23.6561 176.706 22.4321V19.9121C176.706 18.9041 176.67 17.8841 176.598 16.8521C178.206 17.2841 179.67 17.8121 180.99 18.4361ZM193.878 22.8641V19.6241H181.674C181.506 19.8881 181.23 20.0921 180.846 20.2361V22.8641H193.878ZM202.41 31.0721C202.41 31.7441 202.158 32.3201 201.654 32.8001C201.15 33.2801 200.646 33.5201 200.142 33.5201C199.374 33.5201 198.546 32.8601 197.658 31.5401C196.794 30.2201 195.846 29.1401 194.814 28.3001C193.782 27.4601 192.57 26.8001 191.178 26.3201C190.674 26.1281 190.422 25.9841 190.422 25.8881C190.422 25.7681 190.614 25.7081 190.998 25.7081C191.406 25.7081 192.618 25.8881 194.634 26.2481C196.674 26.5841 198.21 26.9801 199.242 27.4361C200.298 27.8681 201.09 28.4201 201.618 29.0921C202.146 29.7401 202.41 30.4001 202.41 31.0721Z" fill="#B81C22"/>
  <path d="M7.668 56.8401H10.962V53.3121H12.258V56.8401H16.056V58.0821H12.564C13.5 61.0161 14.832 63.4461 16.56 65.3721L15.714 66.5241C14.346 64.6881 13.194 62.3301 12.258 59.4501V69.7281H10.962V59.4861C9.954 62.4561 8.712 64.8501 7.2 66.6501L6.462 65.4261C8.244 63.5901 9.648 61.1421 10.656 58.0821H7.668V56.8401ZM0.432 56.8401H3.222V53.3121H4.536V56.8401H6.984V58.0821H4.536V59.1261C5.49 60.0261 6.462 61.0341 7.47 62.1681L6.714 63.3021C5.868 62.0601 5.148 61.0701 4.536 60.3501V69.7281H3.222V60.3141C2.556 62.2401 1.674 63.9681 0.558 65.5161L0 64.1121C1.476 62.3481 2.52 60.3501 3.168 58.0821H0.432V56.8401Z" fill="#9A9A9A"/>
  <path d="M25.812 57.4161C26.856 58.7121 27.828 59.9541 28.71 61.1421C29.43 59.7921 30.006 58.3341 30.438 56.7861L31.716 57.0021C31.176 58.9461 30.456 60.7101 29.556 62.2941C30.654 63.8421 31.59 65.2821 32.364 66.5961L31.194 67.3881C30.474 66.1461 29.682 64.8501 28.782 63.5181C27.666 65.1381 26.352 66.5241 24.804 67.6941L23.94 66.5961C25.542 65.3721 26.892 63.9681 27.972 62.3481C27 60.9621 25.92 59.5401 24.75 58.0641L25.812 57.4161ZM22.608 54.0141H34.254V61.2141C34.254 64.1661 34.344 66.0561 34.56 66.8841C34.758 67.6941 34.992 68.1081 35.28 68.1081C35.514 68.1081 35.712 67.2801 35.874 65.6421L37.026 66.2001C36.81 67.55 36.576 68.4681 36.324 68.9721C36.054 69.4041 35.748 69.6201 35.424 69.6201C34.56 69.6201 33.948 69.0441 33.552 67.9281C33.12 66.8301 32.922 64.5981 32.922 61.2141V55.2741H23.904V60.9981C23.868 64.4901 23.13 67.4241 21.708 69.8001L20.628 68.9181C21.888 66.812 22.554 64.1661 22.608 60.9981V54.0141Z" fill="#9A9A9A"/>
  <path d="M48.942 62.7801V67.9821C50.166 67.6581 51.354 67.2801 52.488 66.8481L52.722 68.0361C51.372 68.5761 49.698 69.0441 47.682 69.4761L47.304 68.3781C47.556 68.3061 47.7 68.0721 47.7 67.7121V54.0141H56.268V59.0361H53.514C53.514 59.9721 53.55 60.8181 53.586 61.5561H57.096V62.7801H53.676C53.73 63.3561 53.802 63.8781 53.874 64.3101C54.108 65.6061 54.396 66.6141 54.756 67.298C55.098 67.9461 55.404 68.2701 55.692 68.2701C55.944 68.2701 56.232 67.3521 56.52 65.534L57.582 66.1641C57.096 68.4681 56.52 69.6201 55.836 69.6201C55.26 69.6201 54.684 69.2421 54.144 68.5041C53.586 67.676 53.136 66.5241 52.812 65.0301C52.668 64.3821 52.542 63.6261 52.47 62.7801H48.942ZM52.272 59.0361H48.942V61.5561H52.362C52.308 60.7641 52.272 59.9361 52.272 59.0361ZM48.942 57.8481H55.044V55.1841H48.942V57.8481ZM46.386 54.2481V68.5581H45.216V67.2081H42.84V68.9721H41.67V54.2481H46.386ZM42.84 66.0201H45.216V63.1761H42.84V66.0201ZM42.84 62.0241H45.216V59.2881H42.84V62.0241ZM42.84 58.1361H45.216V55.4361H42.84V58.1361Z" fill="#9A9A9A"/>
  <path d="M62.226 63.8961H68.886C69.012 63.3921 69.084 62.8521 69.12 62.2941V61.8801H63.468V60.6741H76.086V61.8801H70.416V62.2941C70.38 62.8701 70.326 63.3921 70.218 63.8961H77.4V65.1201H71.082C72.486 66.5601 74.718 67.7121 77.742 68.5401L77.148 69.7821C73.692 68.648 71.226 67.1721 69.732 65.3721C69.408 66.0381 68.994 66.632 68.49 67.1541C67.302 68.2881 65.376 69.1701 62.712 69.8001L62.01 68.6661C64.656 68.0721 66.51 67.2801 67.554 66.3081C67.896 65.9481 68.184 65.5521 68.4 65.1201H62.226V63.8961ZM64.404 54.1401H75.078V59.2161H64.404V54.1401ZM73.8 58.0101V55.3461H65.664V58.0101H73.8Z" fill="#9A9A9A"/>
  <path d="M83.718 57.8481H89.658V59.0361H83.718V57.8481ZM82.89 61.2321H90.216V62.4741H88.83V67.3881C88.83 67.9641 89.1 68.2701 89.658 68.2701H95.382C95.904 68.2701 96.264 68.1441 96.462 67.9281C96.75 67.6761 96.93 66.9021 97.038 65.6421L98.19 66.0021C98.046 67.6401 97.758 68.6301 97.344 68.9901C96.984 69.2961 96.408 69.4581 95.616 69.4581H89.28C88.146 69.4581 87.588 68.8461 87.588 67.6401V62.4741H86.13C86.022 64.4541 85.77 65.9301 85.374 66.9021C84.888 68.0181 84.078 68.9901 82.962 69.8181L82.152 68.7921C83.124 68.1081 83.808 67.2801 84.24 66.3441C84.6 65.4981 84.834 64.2021 84.924 62.4741H82.89V61.2321ZM90.54 58.6041H94.572V56.6961H95.814V58.6041H97.704V59.8281H95.814V65.2641C95.814 66.3981 95.292 66.9741 94.248 66.9741H92.286L92.016 65.7681C92.646 65.8221 93.24 65.8581 93.816 65.8581C94.32 65.8581 94.572 65.5521 94.572 64.9581V59.8281H90.54V58.6041ZM91.746 60.7821C92.394 61.6821 92.952 62.6901 93.438 63.7701L92.448 64.2921C91.926 63.1401 91.35 62.1321 90.738 61.2321L91.746 60.7821ZM97.668 54.0861V57.3081H96.408V55.2921H84.204V57.3081H82.944V54.0861H97.668Z" fill="#9A9A9A"/>
  <path d="M110.16 53.2221H111.492V56.4621H117.954V64.9221H116.658V63.7881H111.492V69.9261H110.16V63.7881H105.012V64.9221H103.716V56.4621H110.16V53.2221ZM105.012 62.5281H110.16V57.7221H105.012V62.5281ZM111.492 62.5281H116.658V57.7221H111.492V62.5281Z" fill="#9A9A9A"/>
  <path d="M123.426 54.9681H127.674V53.2401H128.988V54.9681H133.704V53.2401H135.018V54.9681H139.266V56.1921H135.018V57.8121H133.704V56.1921H128.988V57.8121H127.674V56.1921H123.426V54.9681ZM125.01 58.6581H136.818V59.9181C131.958 62.5461 128.772 64.5801 127.224 66.0561C126.612 66.6681 126.27 67.1721 126.198 67.5861C126.198 67.9461 126.45 68.1441 126.954 68.1441H135.612C136.224 68.1441 136.692 68.0181 137.034 67.784C137.394 67.5321 137.664 66.4521 137.844 64.5801L139.05 65.0661C138.834 67.0821 138.474 68.3061 137.97 68.7201C137.466 69.1341 136.728 69.3501 135.738 69.3501H127.044C125.568 69.3501 124.83 68.8281 124.83 67.8021C124.83 67.0281 125.424 66.1101 126.612 65.0661C128.196 63.6261 130.86 61.8981 134.64 59.9181H125.01V58.6581Z" fill="#9A9A9A"/>
  <path d="M144.234 57.5601H151.218V53.2581H152.514V57.5601H159.516V58.8021H153.81C154.998 61.7901 157.068 64.4541 160.038 66.7941L159.174 67.8921C156.006 65.1921 153.81 62.1501 152.586 58.8021H152.514V69.7641H151.218V58.8021H151.146C149.814 62.5461 147.528 65.6241 144.324 68.0001L143.622 66.8481C146.538 64.7601 148.644 62.0781 149.922 58.8021H144.234V57.5601ZM155.412 53.2941C156.492 54.4101 157.32 55.3821 157.896 56.2101L156.87 56.9481C156.258 56.0301 155.448 55.0221 154.404 53.9241L155.412 53.2941Z" fill="#9A9A9A"/>
  <path d="M164.484 58.0281H171.486C171.63 56.9841 171.702 55.9041 171.72 54.7701V53.3121H173.052V54.4821C173.052 55.7421 172.962 56.9121 172.818 58.0281H180.288V59.2881H173.196C174.456 63.3561 176.94 66.4881 180.63 68.6841L179.82 69.7281C176.202 67.496 173.718 64.3641 172.368 60.2961C171.252 64.6701 168.768 67.8561 164.934 69.8541L164.124 68.7741C167.958 66.8841 170.334 63.7161 171.27 59.2881H164.484V58.0281Z" fill="#9A9A9A"/>
  <path d="M188.496 60.1341H191.124V58.3161H187.722V60.0801C187.722 61.1601 187.65 62.1861 187.542 63.1581H191.124V61.2861H188.496V60.1341ZM187.362 64.3461C187.002 66.3621 186.408 68.1801 185.58 69.8001L184.536 68.8641C185.76 66.5961 186.39 63.6621 186.408 60.0801V53.9961H199.764V58.3161H197.262V60.1341H200.088V61.2861H197.262V63.1581H200.682V64.3461H194.904C195.372 65.1741 195.966 65.8761 196.65 66.4881C197.46 66.0561 198.234 65.3901 198.972 64.4541L199.872 65.3361C199.224 66.1281 198.486 66.7761 197.658 67.2441C198.702 67.9101 199.89 68.3781 201.258 68.6661L200.628 69.8901C197.316 69.062 194.976 67.2081 193.608 64.3461H191.16V68.2881C192.33 68.0001 193.338 67.6581 194.202 67.2801L194.454 68.4681C193.086 68.9721 191.466 69.4041 189.594 69.7821L189.234 68.6481C189.666 68.4861 189.882 68.1801 189.882 67.7481V64.3461H187.362ZM196.002 58.3161H192.366V60.1341H196.002V58.3161ZM192.366 63.1581H196.002V61.2861H192.366V63.1581ZM198.468 55.1841H187.722V57.1461H198.468V55.1841Z" fill="#9A9A9A"/>
</svg>