<svg xmlns="http://www.w3.org/2000/svg" width="297" height="34" viewBox="0 0 297 34" fill="none">
  <path d="M0.5 15.876H48.5V18.876H0.5V15.876Z" fill="#B81C22"/>
  <path d="M91.244 20.23H88.626C88.2633 22.678 87.6627 24.7974 86.824 26.588C85.9853 28.3787 84.954 29.92 83.73 31.212C82.506 32.5267 81.758 33.184 81.486 33.184C81.418 33.184 81.384 33.1387 81.384 33.048C81.384 32.9574 81.452 32.81 81.588 32.606C82.676 31.0194 83.526 28.7754 84.138 25.874C84.7727 22.95 85.09 19.618 85.09 15.878C85.09 12.138 85.0107 7.53671 84.852 2.07404C86.824 2.59537 88.3767 3.10537 89.51 3.60404H104.368C104.935 2.65204 105.263 2.10804 105.354 1.97204C105.467 1.83604 105.615 1.76804 105.796 1.76804C106 1.76804 106.521 2.01737 107.36 2.51604C108.221 3.01471 108.833 3.38871 109.196 3.63804C109.581 3.86471 109.774 4.12537 109.774 4.42004C109.774 4.69204 109.491 4.94137 108.924 5.16804V7.65004L108.958 9.48604C108.958 9.66737 108.856 9.82604 108.652 9.96204C108.448 10.0754 107.927 10.2227 107.088 10.404C106.249 10.5854 105.581 10.676 105.082 10.676C104.855 10.676 104.742 10.4834 104.742 10.098V9.48604H100.458C102.475 9.80337 103.711 10.0527 104.164 10.234C104.617 10.3927 104.844 10.5854 104.844 10.812C104.844 11.016 104.606 11.22 104.13 11.424V13.634H105.32C105.887 12.682 106.283 12.07 106.51 11.798C106.737 11.526 106.941 11.39 107.122 11.39C107.303 11.39 107.768 11.6734 108.516 12.24C109.264 12.8067 109.797 13.226 110.114 13.498C110.454 13.77 110.624 14.0194 110.624 14.246C110.624 14.586 110.341 14.756 109.774 14.756H104.13V19.108H106.374C106.986 17.9294 107.417 17.1814 107.666 16.864C107.915 16.5467 108.108 16.388 108.244 16.388C108.403 16.388 108.765 16.558 109.332 16.898C109.899 17.238 110.522 17.68 111.202 18.224C111.905 18.7454 112.324 19.0967 112.46 19.278C112.596 19.4367 112.664 19.584 112.664 19.72C112.664 20.06 112.392 20.23 111.848 20.23H105.83C106.85 20.7514 107.734 21.284 108.482 21.828C109.23 22.3494 109.672 22.7007 109.808 22.882C109.967 23.0407 110.046 23.188 110.046 23.324C110.046 23.46 109.978 23.5507 109.842 23.596C109.729 23.6414 109.434 23.664 108.958 23.664C108.505 23.664 107.711 23.7887 106.578 24.038C105.445 24.2647 104.243 24.5934 102.974 25.024C105.354 26.5427 108.879 27.6307 113.548 28.288C113.843 28.3334 113.99 28.4127 113.99 28.526C113.99 28.6167 113.854 28.6847 113.582 28.73C112.834 28.866 112.086 29.2514 111.338 29.886C110.59 30.5207 110.023 31.2347 109.638 32.028C109.502 32.3227 109.332 32.47 109.128 32.47C108.743 32.47 107.541 31.9034 105.524 30.77C103.507 29.6594 101.875 28.3107 100.628 26.724C98.8827 27.9254 97.2167 29.1494 95.63 30.396C94.0433 31.6427 93.1367 32.3794 92.91 32.606C92.6833 32.8554 92.5133 32.98 92.4 32.98C92.2867 32.98 92.1847 32.912 92.094 32.776L90.904 30.872C90.224 29.716 89.884 29.036 89.884 28.832C89.884 28.7187 89.9633 28.6167 90.122 28.526C90.6207 28.2994 90.9267 28.1067 91.04 27.948C91.176 27.7894 91.244 27.54 91.244 27.2V20.23ZM104.742 8.36404V4.72604H89.272C89.1587 4.88471 89.102 5.37204 89.102 6.18804C89.102 7.00404 89.0907 7.72937 89.068 8.36404H104.742ZM89.068 9.48604C89.068 10.438 89.0453 11.798 89 13.566C89.34 13.6114 89.7593 13.634 90.258 13.634H92.978C92.978 11.934 92.9553 10.5967 92.91 9.62204C94.6553 9.80337 95.8567 9.98471 96.514 10.166C97.194 10.3474 97.534 10.5514 97.534 10.778C97.534 11.0274 97.2847 11.254 96.786 11.458V13.634H100.186C100.186 11.866 100.163 10.4834 100.118 9.48604H89.068ZM88.796 19.108H92.978V14.756H90.666C90.2127 14.756 89.8047 14.8807 89.442 15.13L88.966 14.28L88.796 19.108ZM96.786 19.108H100.186V14.756H96.786V19.108ZM105.592 20.23H98.724C99.404 21.9074 100.515 23.3014 102.056 24.412C102.872 23.7774 104.051 22.3834 105.592 20.23ZM97.704 20.23H95.732C95.664 20.366 95.494 20.468 95.222 20.536V27.54C97.262 26.996 98.9053 26.52 100.152 26.112C99.0413 24.4574 98.2253 22.4967 97.704 20.23Z" fill="#B81C22"/>
  <path d="M136.328 6.52804H141.326C141.87 5.48537 142.312 4.72604 142.652 4.25004C142.992 3.75137 143.253 3.50204 143.434 3.50204C143.729 3.50204 144.522 4.05737 145.814 5.16804C147.129 6.25604 147.786 6.94737 147.786 7.24204C147.786 7.51404 147.537 7.65004 147.038 7.65004H135.614C134.322 9.59937 133.087 11.118 131.908 12.206C130.752 13.2714 130.083 13.804 129.902 13.804C129.857 13.804 129.834 13.7814 129.834 13.736C129.834 13.6454 129.913 13.4527 130.072 13.158C131.908 10.0074 133.121 5.89337 133.71 0.81604C134.934 1.08804 136.056 1.39404 137.076 1.73404C138.096 2.05137 138.719 2.28937 138.946 2.44804C139.195 2.58404 139.32 2.73137 139.32 2.89004C139.32 3.04871 139.127 3.19604 138.742 3.33204C138.357 3.46804 137.971 3.85337 137.586 4.48804C137.223 5.10004 136.804 5.78004 136.328 6.52804ZM128.78 12.41C128.78 12.7274 128.701 12.9654 128.542 13.124C128.406 13.2827 127.975 13.4754 127.25 13.702C126.547 13.9287 125.845 14.042 125.142 14.042C124.825 14.042 124.666 13.9174 124.666 13.668L124.734 12.376C124.757 11.8094 124.768 10.9254 124.768 9.72404V3.50204C124.768 2.75404 124.734 1.92671 124.666 1.02004C125.777 1.11071 126.763 1.22404 127.624 1.36004C128.508 1.49604 129.029 1.62071 129.188 1.73404C129.369 1.84737 129.46 1.99471 129.46 2.17604C129.46 2.35737 129.233 2.55004 128.78 2.75404V12.41ZM118.308 2.85604C119.192 2.94671 120.087 3.07137 120.994 3.23004C121.923 3.38871 122.467 3.52471 122.626 3.63804C122.785 3.72871 122.864 3.86471 122.864 4.04604C122.864 4.20471 122.637 4.38604 122.184 4.59004V12.988C122.184 13.328 122.093 13.5547 121.912 13.668C121.753 13.7587 121.413 13.8834 120.892 14.042C120.393 14.2007 119.679 14.28 118.75 14.28C118.455 14.28 118.308 14.1214 118.308 13.804L118.376 12.444C118.399 11.8547 118.41 11.0047 118.41 9.89404V5.33804C118.41 4.59004 118.376 3.76271 118.308 2.85604ZM135.512 8.39804C136.645 8.39804 137.847 8.55671 139.116 8.87404C140.385 9.19137 141.394 9.66737 142.142 10.302C142.89 10.9367 143.264 11.6054 143.264 12.308C143.264 13.0107 143.026 13.6 142.55 14.076C142.074 14.5294 141.428 14.756 140.612 14.756C140.181 14.756 139.807 14.5974 139.49 14.28C139.173 13.9627 138.957 13.4754 138.844 12.818C138.731 12.138 138.357 11.4127 137.722 10.642C137.087 9.84871 136.339 9.24804 135.478 8.84004C135.206 8.70404 135.07 8.60204 135.07 8.53404C135.07 8.44337 135.217 8.39804 135.512 8.39804ZM124.462 15.47H136.396C136.668 15.0167 136.929 14.6427 137.178 14.348C137.427 14.0307 137.643 13.872 137.824 13.872C138.028 13.872 138.504 14.1214 139.252 14.62C140.023 15.096 140.691 15.5607 141.258 16.014C141.825 16.4447 142.108 16.7394 142.108 16.898C142.108 17.1247 141.745 17.374 141.02 17.646V21.148C141.02 22.2134 141.031 22.95 141.054 23.358L141.088 24.514C141.088 24.9447 140.703 25.296 139.932 25.568C139.184 25.84 138.334 25.976 137.382 25.976C136.997 25.976 136.804 25.7947 136.804 25.432V16.592H124.938C124.87 16.8867 124.689 17.0907 124.394 17.204V25.058C124.394 25.3074 124.292 25.534 124.088 25.738C123.907 25.942 123.533 26.1234 122.966 26.282C122.399 26.4407 121.719 26.52 120.926 26.52C120.563 26.52 120.382 26.3727 120.382 26.078L120.45 24.48C120.495 23.3694 120.518 22.3607 120.518 21.454V17.68C120.518 16.2974 120.495 15.1187 120.45 14.144C121.923 14.484 123.261 14.926 124.462 15.47ZM130.82 25.262C129.959 27.3474 128.678 28.9227 126.978 29.988C125.301 31.0534 123.193 31.8467 120.654 32.368C118.138 32.912 116.631 33.184 116.132 33.184C115.905 33.184 115.792 33.1274 115.792 33.014C115.792 32.9234 116.019 32.7987 116.472 32.64C119.917 31.484 122.456 30.2827 124.088 29.036C125.743 27.7894 126.842 26.3047 127.386 24.582C127.93 22.8594 128.213 20.4567 128.236 17.374C129.415 17.4647 130.469 17.5894 131.398 17.748C132.35 17.9067 132.905 18.0427 133.064 18.156C133.223 18.2467 133.302 18.3714 133.302 18.53C133.302 18.6887 133.143 18.87 132.826 19.074C132.531 19.2554 132.327 19.6067 132.214 20.128C132.123 20.6494 132.044 21.0574 131.976 21.352C132.928 21.4654 133.721 21.6127 134.356 21.794C134.991 21.9527 135.308 22.1227 135.308 22.304C135.308 22.4854 135.047 22.7234 134.526 23.018V26.826C134.526 27.4607 134.753 27.914 135.206 28.186C135.659 28.458 136.532 28.594 137.824 28.594C139.116 28.594 140.272 28.526 141.292 28.39C142.312 28.2314 143.117 27.676 143.706 26.724C144.295 25.7494 144.783 24.378 145.168 22.61C145.259 22.1794 145.361 21.964 145.474 21.964C145.587 21.964 145.599 22.3494 145.508 23.12C145.44 23.868 145.406 24.6047 145.406 25.33C145.406 26.0554 145.485 26.6447 145.644 27.098C145.825 27.5514 146.222 27.9707 146.834 28.356C147.469 28.7187 147.786 29.1267 147.786 29.58C147.786 30.056 147.435 30.5207 146.732 30.974C146.029 31.45 144.862 31.8014 143.23 32.028C141.621 32.2774 139.921 32.402 138.13 32.402C136.362 32.402 134.923 32.3 133.812 32.096C132.701 31.9147 131.919 31.5294 131.466 30.94C131.035 30.3734 130.82 29.342 130.82 27.846V25.262Z" fill="#B81C22"/>
  <path d="M169.104 7.75204C168.265 7.48004 167.846 6.66404 167.846 5.30404C167.846 4.57871 167.642 3.89871 167.234 3.26404C166.826 2.60671 166.305 2.14204 165.67 1.87004C165.375 1.73404 165.228 1.62071 165.228 1.53004C165.228 1.41671 165.364 1.36004 165.636 1.36004C167.223 1.36004 168.809 1.63204 170.396 2.17604C172.005 2.69737 172.81 3.63804 172.81 4.99804C172.81 5.63271 172.651 6.19937 172.334 6.69804C172.017 7.19671 171.563 7.54804 170.974 7.75204H176.04C176.561 6.70937 176.947 6.00671 177.196 5.64404C177.445 5.25871 177.672 5.06604 177.876 5.06604C178.171 5.06604 178.941 5.55337 180.188 6.52804C181.435 7.50271 182.058 8.13737 182.058 8.43204C182.058 8.72671 181.729 8.87404 181.072 8.87404H161.692C161.239 8.87404 160.831 8.99871 160.468 9.24804L159.72 7.92204C158.836 9.62204 158.077 10.9594 157.442 11.934C158.394 12.206 158.949 12.41 159.108 12.546C159.267 12.6594 159.346 12.7727 159.346 12.886C159.346 13.158 159.017 13.43 158.36 13.702V31.688C158.36 31.9374 158.258 32.13 158.054 32.266C157.85 32.402 157.431 32.5494 156.796 32.708C156.161 32.8667 155.47 32.946 154.722 32.946C154.473 32.946 154.348 32.8327 154.348 32.606L154.45 29.41C154.473 28.4127 154.484 27.472 154.484 26.588V16.218C153.509 17.3967 152.603 18.3714 151.764 19.142C150.948 19.9127 150.438 20.3887 150.234 20.57C150.03 20.7287 149.871 20.808 149.758 20.808C149.645 20.808 149.588 20.7514 149.588 20.638C149.588 20.502 149.679 20.3094 149.86 20.06C151.628 17.7254 153.045 15.1074 154.11 12.206C155.175 9.28204 156.003 5.87071 156.592 1.97204C157.748 2.35737 158.893 2.77671 160.026 3.23004C161.182 3.68337 161.839 3.97804 161.998 4.11404C162.157 4.25004 162.236 4.39737 162.236 4.55604C162.236 4.82804 162.043 5.00937 161.658 5.10004C161.431 5.14537 161.205 5.33804 160.978 5.67804C160.751 5.99537 160.377 6.66404 159.856 7.68404C160.264 7.72937 160.74 7.75204 161.284 7.75204H169.104ZM173.898 12.58C174.782 10.9707 175.439 10.166 175.87 10.166C176.142 10.166 176.811 10.5967 177.876 11.458C178.964 12.2967 179.508 12.886 179.508 13.226C179.508 13.5434 179.213 13.702 178.624 13.702H163.834C163.381 13.702 162.973 13.8267 162.61 14.076L161.726 12.478L163.426 12.58H173.898ZM173.83 17.51C174.759 15.81 175.439 14.96 175.87 14.96C176.097 14.96 176.788 15.4247 177.944 16.354C179.123 17.2834 179.712 17.8954 179.712 18.19C179.712 18.4847 179.395 18.632 178.76 18.632H163.868C163.415 18.632 163.007 18.7567 162.644 19.006L161.76 17.408C162.304 17.476 162.871 17.51 163.46 17.51H173.83ZM167.302 21.964H173.966C174.306 21.1934 174.601 20.6607 174.85 20.366C175.122 20.0714 175.383 19.924 175.632 19.924C175.995 19.924 176.845 20.3207 178.182 21.114C179.542 21.9074 180.222 22.4967 180.222 22.882C180.222 23.2447 179.837 23.5167 179.066 23.698V30.26C179.066 30.6454 179.077 30.9854 179.1 31.28L179.168 32.028C179.168 32.1414 179.134 32.232 179.066 32.3C178.998 32.3907 178.737 32.5154 178.284 32.674C177.831 32.8327 177.332 32.946 176.788 33.014C176.267 33.1047 175.768 33.15 175.292 33.15C174.839 33.15 174.555 33.1274 174.442 33.082C174.351 33.0594 174.306 32.912 174.306 32.64V30.464H166.69V31.892C166.69 32.028 166.645 32.13 166.554 32.198C166.486 32.2887 166.259 32.402 165.874 32.538C165.511 32.6967 165.103 32.7987 164.65 32.844C164.197 32.912 163.709 32.946 163.188 32.946C162.689 32.946 162.406 32.9347 162.338 32.912C162.293 32.8894 162.281 32.7874 162.304 32.606C162.349 32.0847 162.372 31.246 162.372 30.09V23.12C162.372 22.168 162.338 21.2047 162.27 20.23C164.242 20.7287 165.919 21.3067 167.302 21.964ZM174.306 29.342V23.086H167.132C167.064 23.154 166.917 23.2334 166.69 23.324V29.342H174.306Z" fill="#B81C22"/>
  <path d="M195.624 6.25604C195.941 5.03204 196.168 3.40004 196.304 1.36004C196.939 1.40537 197.947 1.51871 199.33 1.70004C200.735 1.88137 201.529 2.04004 201.71 2.17604C201.914 2.31204 202.016 2.45937 202.016 2.61804C202.016 2.89004 201.835 3.07137 201.472 3.16204C201.109 3.25271 200.645 3.54737 200.078 4.04604C199.534 4.52204 198.763 5.25871 197.766 6.25604H205.518C205.79 5.64404 206.028 5.20204 206.232 4.93004C206.436 4.65804 206.674 4.52204 206.946 4.52204C207.422 4.52204 208.295 4.94137 209.564 5.78004C210.833 6.61871 211.468 7.18537 211.468 7.48004C211.468 7.77471 211.071 8.04671 210.278 8.29604V17.17C210.278 18.2354 210.289 18.972 210.312 19.38L210.346 20.536C210.346 20.7854 210.255 20.9894 210.074 21.148C209.915 21.3067 209.473 21.4654 208.748 21.624C208.045 21.7827 207.229 21.862 206.3 21.862C206.028 21.862 205.892 21.6694 205.892 21.284V20.4H193.482V21.284C193.482 21.5107 193.38 21.6807 193.176 21.794C192.995 21.8847 192.609 21.9754 192.02 22.066C191.431 22.134 190.683 22.168 189.776 22.168C189.459 22.168 189.3 22.0547 189.3 21.828L189.368 20.162C189.413 19.482 189.436 18.5754 189.436 17.442V8.26204C189.436 6.87937 189.413 5.70071 189.368 4.72604C191.045 5.17937 192.473 5.68937 193.652 6.25604H195.624ZM193.482 10.54H205.892V7.37804H194.196C194.105 7.62737 193.867 7.80871 193.482 7.92204V10.54ZM205.892 11.696H193.482V14.756H205.892V11.696ZM205.892 19.108V16.048H193.482V19.108H205.892ZM196.678 21.114C198.355 21.114 199.738 21.3747 200.826 21.896C201.914 22.4174 202.458 23.222 202.458 24.31C202.458 25.0127 202.231 25.6134 201.778 26.112C201.325 26.588 200.803 26.826 200.214 26.826C199.262 26.826 198.718 26.2367 198.582 25.058C198.469 24.174 198.276 23.494 198.004 23.018C197.732 22.5194 197.381 22.1227 196.95 21.828C196.542 21.5107 196.338 21.318 196.338 21.25C196.338 21.1594 196.451 21.114 196.678 21.114ZM195.25 24.276V26.86C195.25 27.5854 195.511 28.118 196.032 28.458C196.553 28.798 197.585 28.968 199.126 28.968C200.69 28.968 201.835 28.8547 202.56 28.628C203.308 28.4014 203.852 27.948 204.192 27.268C204.555 26.5654 204.917 25.4434 205.28 23.902C205.348 23.5847 205.427 23.426 205.518 23.426C205.609 23.426 205.654 23.4714 205.654 23.562C205.677 23.63 205.688 23.9927 205.688 24.65C205.688 25.2847 205.79 25.8967 205.994 26.486C206.198 27.0527 206.629 27.5514 207.286 27.982C207.966 28.39 208.306 28.8547 208.306 29.376C208.306 29.8974 207.898 30.4527 207.082 31.042C206.289 31.654 205.155 32.0054 203.682 32.096C202.209 32.2094 200.905 32.266 199.772 32.266C198.661 32.266 197.381 32.2094 195.93 32.096C194.479 31.9827 193.38 31.688 192.632 31.212C191.907 30.7587 191.544 29.6367 191.544 27.846V25.364C191.544 24.4347 191.51 23.5054 191.442 22.576C194.434 22.712 195.93 23.0407 195.93 23.562C195.93 23.8114 195.703 24.0494 195.25 24.276ZM206.198 22.746C207.105 22.746 208.34 23.0067 209.904 23.528C211.468 24.0267 212.624 24.684 213.372 25.5C214.12 26.316 214.494 27.1774 214.494 28.084C214.494 28.9907 214.267 29.6934 213.814 30.192C213.361 30.7134 212.817 30.974 212.182 30.974C211.547 30.974 211.026 30.7587 210.618 30.328C210.233 29.92 209.983 29.308 209.87 28.492C209.666 27.0187 209.292 25.8854 208.748 25.092C208.227 24.276 207.467 23.6527 206.47 23.222C206.085 23.0407 205.892 22.916 205.892 22.848C205.892 22.78 205.994 22.746 206.198 22.746ZM187.77 23.086C187.929 23.086 188.235 23.5394 188.688 24.446C189.164 25.33 189.402 26.3047 189.402 27.37C189.402 28.4127 189.107 29.3307 188.518 30.124C187.951 30.94 187.203 31.348 186.274 31.348C185.617 31.348 185.095 31.144 184.71 30.736C184.347 30.3507 184.166 29.92 184.166 29.444C184.166 28.764 184.574 28.1294 185.39 27.54C186.229 26.9507 186.829 26.4067 187.192 25.908C187.555 25.3867 187.736 24.8087 187.736 24.174L187.702 23.358C187.702 23.1767 187.725 23.086 187.77 23.086Z" fill="#B81C22"/>
  <path d="M248.5 15.876H296.5V18.876H248.5V15.876Z" fill="#B81C22"/>
</svg>