<svg xmlns="http://www.w3.org/2000/svg" width="296" height="34" viewBox="0 0 296 34" fill="none">
  <path d="M0 15.876H48V18.876H0V15.876Z" fill="#B81C22"/>
  <path d="M90.744 20.23H88.126C87.7633 22.678 87.1627 24.7973 86.324 26.588C85.4853 28.3786 84.454 29.92 83.23 31.212C82.006 32.5266 81.258 33.184 80.986 33.184C80.918 33.184 80.884 33.1386 80.884 33.048C80.884 32.9573 80.952 32.81 81.088 32.606C82.176 31.0193 83.026 28.7753 83.638 25.874C84.2727 22.95 84.59 19.618 84.59 15.878C84.59 12.138 84.5107 7.53665 84.352 2.07398C86.324 2.59531 87.8767 3.10531 89.01 3.60398H103.868C104.435 2.65198 104.763 2.10798 104.854 1.97198C104.967 1.83598 105.115 1.76798 105.296 1.76798C105.5 1.76798 106.021 2.01731 106.86 2.51598C107.721 3.01465 108.333 3.38865 108.696 3.63798C109.081 3.86465 109.274 4.12531 109.274 4.41998C109.274 4.69198 108.991 4.94131 108.424 5.16798V7.64998L108.458 9.48598C108.458 9.66731 108.356 9.82598 108.152 9.96198C107.948 10.0753 107.427 10.2226 106.588 10.404C105.749 10.5853 105.081 10.676 104.582 10.676C104.355 10.676 104.242 10.4833 104.242 10.098V9.48598H99.958C101.975 9.80331 103.211 10.0526 103.664 10.234C104.117 10.3926 104.344 10.5853 104.344 10.812C104.344 11.016 104.106 11.22 103.63 11.424V13.634H104.82C105.387 12.682 105.783 12.07 106.01 11.798C106.237 11.526 106.441 11.39 106.622 11.39C106.803 11.39 107.268 11.6733 108.016 12.24C108.764 12.8066 109.297 13.226 109.614 13.498C109.954 13.77 110.124 14.0193 110.124 14.246C110.124 14.586 109.841 14.756 109.274 14.756H103.63V19.108H105.874C106.486 17.9293 106.917 17.1813 107.166 16.864C107.415 16.5466 107.608 16.388 107.744 16.388C107.903 16.388 108.265 16.558 108.832 16.898C109.399 17.238 110.022 17.68 110.702 18.224C111.405 18.7453 111.824 19.0966 111.96 19.278C112.096 19.4366 112.164 19.584 112.164 19.72C112.164 20.06 111.892 20.23 111.348 20.23H105.33C106.35 20.7513 107.234 21.284 107.982 21.828C108.73 22.3493 109.172 22.7006 109.308 22.882C109.467 23.0406 109.546 23.188 109.546 23.324C109.546 23.46 109.478 23.5506 109.342 23.596C109.229 23.6413 108.934 23.664 108.458 23.664C108.005 23.664 107.211 23.7886 106.078 24.038C104.945 24.2646 103.743 24.5933 102.474 25.024C104.854 26.5426 108.379 27.6306 113.048 28.288C113.343 28.3333 113.49 28.4126 113.49 28.526C113.49 28.6166 113.354 28.6846 113.082 28.73C112.334 28.866 111.586 29.2513 110.838 29.886C110.09 30.5206 109.523 31.2346 109.138 32.028C109.002 32.3226 108.832 32.47 108.628 32.47C108.243 32.47 107.041 31.9033 105.024 30.77C103.007 29.6593 101.375 28.3106 100.128 26.724C98.3827 27.9253 96.7167 29.1493 95.13 30.396C93.5433 31.6426 92.6367 32.3793 92.41 32.606C92.1833 32.8553 92.0133 32.98 91.9 32.98C91.7867 32.98 91.6847 32.912 91.594 32.776L90.404 30.872C89.724 29.716 89.384 29.036 89.384 28.832C89.384 28.7186 89.4633 28.6166 89.622 28.526C90.1207 28.2993 90.4267 28.1066 90.54 27.948C90.676 27.7893 90.744 27.54 90.744 27.2V20.23ZM104.242 8.36398V4.72598H88.772C88.6587 4.88465 88.602 5.37198 88.602 6.18798C88.602 7.00398 88.5907 7.72931 88.568 8.36398H104.242ZM88.568 9.48598C88.568 10.438 88.5453 11.798 88.5 13.566C88.84 13.6113 89.2593 13.634 89.758 13.634H92.478C92.478 11.934 92.4553 10.5966 92.41 9.62198C94.1553 9.80331 95.3567 9.98465 96.014 10.166C96.694 10.3473 97.034 10.5513 97.034 10.778C97.034 11.0273 96.7847 11.254 96.286 11.458V13.634H99.686C99.686 11.866 99.6633 10.4833 99.618 9.48598H88.568ZM88.296 19.108H92.478V14.756H90.166C89.7127 14.756 89.3047 14.8806 88.942 15.13L88.466 14.28L88.296 19.108ZM96.286 19.108H99.686V14.756H96.286V19.108ZM105.092 20.23H98.224C98.904 21.9073 100.015 23.3013 101.556 24.412C102.372 23.7773 103.551 22.3833 105.092 20.23ZM97.204 20.23H95.232C95.164 20.366 94.994 20.468 94.722 20.536V27.54C96.762 26.996 98.4053 26.52 99.652 26.112C98.5413 24.4573 97.7253 22.4966 97.204 20.23Z" fill="#B81C22"/>
  <path d="M135.828 6.52798H140.826C141.37 5.48531 141.812 4.72598 142.152 4.24998C142.492 3.75131 142.753 3.50198 142.934 3.50198C143.229 3.50198 144.022 4.05731 145.314 5.16798C146.629 6.25598 147.286 6.94731 147.286 7.24198C147.286 7.51398 147.037 7.64998 146.538 7.64998H135.114C133.822 9.59931 132.587 11.118 131.408 12.206C130.252 13.2713 129.583 13.804 129.402 13.804C129.357 13.804 129.334 13.7813 129.334 13.736C129.334 13.6453 129.413 13.4526 129.572 13.158C131.408 10.0073 132.621 5.89331 133.21 0.815979C134.434 1.08798 135.556 1.39398 136.576 1.73398C137.596 2.05131 138.219 2.28931 138.446 2.44798C138.695 2.58398 138.82 2.73131 138.82 2.88998C138.82 3.04865 138.627 3.19598 138.242 3.33198C137.857 3.46798 137.471 3.85331 137.086 4.48798C136.723 5.09998 136.304 5.77998 135.828 6.52798ZM128.28 12.41C128.28 12.7273 128.201 12.9653 128.042 13.124C127.906 13.2826 127.475 13.4753 126.75 13.702C126.047 13.9286 125.345 14.042 124.642 14.042C124.325 14.042 124.166 13.9173 124.166 13.668L124.234 12.376C124.257 11.8093 124.268 10.9253 124.268 9.72398V3.50198C124.268 2.75398 124.234 1.92665 124.166 1.01998C125.277 1.11065 126.263 1.22398 127.124 1.35998C128.008 1.49598 128.529 1.62065 128.688 1.73398C128.869 1.84731 128.96 1.99465 128.96 2.17598C128.96 2.35731 128.733 2.54998 128.28 2.75398V12.41ZM117.808 2.85598C118.692 2.94665 119.587 3.07131 120.494 3.22998C121.423 3.38865 121.967 3.52465 122.126 3.63798C122.285 3.72865 122.364 3.86465 122.364 4.04598C122.364 4.20465 122.137 4.38598 121.684 4.58998V12.988C121.684 13.328 121.593 13.5546 121.412 13.668C121.253 13.7586 120.913 13.8833 120.392 14.042C119.893 14.2006 119.179 14.28 118.25 14.28C117.955 14.28 117.808 14.1213 117.808 13.804L117.876 12.444C117.899 11.8546 117.91 11.0046 117.91 9.89398V5.33798C117.91 4.58998 117.876 3.76265 117.808 2.85598ZM135.012 8.39798C136.145 8.39798 137.347 8.55665 138.616 8.87398C139.885 9.19131 140.894 9.66731 141.642 10.302C142.39 10.9366 142.764 11.6053 142.764 12.308C142.764 13.0106 142.526 13.6 142.05 14.076C141.574 14.5293 140.928 14.756 140.112 14.756C139.681 14.756 139.307 14.5973 138.99 14.28C138.673 13.9626 138.457 13.4753 138.344 12.818C138.231 12.138 137.857 11.4126 137.222 10.642C136.587 9.84865 135.839 9.24798 134.978 8.83998C134.706 8.70398 134.57 8.60198 134.57 8.53398C134.57 8.44331 134.717 8.39798 135.012 8.39798ZM123.962 15.47H135.896C136.168 15.0166 136.429 14.6426 136.678 14.348C136.927 14.0306 137.143 13.872 137.324 13.872C137.528 13.872 138.004 14.1213 138.752 14.62C139.523 15.096 140.191 15.5606 140.758 16.014C141.325 16.4446 141.608 16.7393 141.608 16.898C141.608 17.1246 141.245 17.374 140.52 17.646V21.148C140.52 22.2133 140.531 22.95 140.554 23.358L140.588 24.514C140.588 24.9446 140.203 25.296 139.432 25.568C138.684 25.84 137.834 25.976 136.882 25.976C136.497 25.976 136.304 25.7946 136.304 25.432V16.592H124.438C124.37 16.8866 124.189 17.0906 123.894 17.204V25.058C123.894 25.3073 123.792 25.534 123.588 25.738C123.407 25.942 123.033 26.1233 122.466 26.282C121.899 26.4406 121.219 26.52 120.426 26.52C120.063 26.52 119.882 26.3726 119.882 26.078L119.95 24.48C119.995 23.3693 120.018 22.3606 120.018 21.454V17.68C120.018 16.2973 119.995 15.1186 119.95 14.144C121.423 14.484 122.761 14.926 123.962 15.47ZM130.32 25.262C129.459 27.3473 128.178 28.9226 126.478 29.988C124.801 31.0533 122.693 31.8466 120.154 32.368C117.638 32.912 116.131 33.184 115.632 33.184C115.405 33.184 115.292 33.1273 115.292 33.014C115.292 32.9233 115.519 32.7986 115.972 32.64C119.417 31.484 121.956 30.2826 123.588 29.036C125.243 27.7893 126.342 26.3046 126.886 24.582C127.43 22.8593 127.713 20.4566 127.736 17.374C128.915 17.4646 129.969 17.5893 130.898 17.748C131.85 17.9066 132.405 18.0426 132.564 18.156C132.723 18.2466 132.802 18.3713 132.802 18.53C132.802 18.6886 132.643 18.87 132.326 19.074C132.031 19.2553 131.827 19.6066 131.714 20.128C131.623 20.6493 131.544 21.0573 131.476 21.352C132.428 21.4653 133.221 21.6126 133.856 21.794C134.491 21.9526 134.808 22.1226 134.808 22.304C134.808 22.4853 134.547 22.7233 134.026 23.018V26.826C134.026 27.4606 134.253 27.914 134.706 28.186C135.159 28.458 136.032 28.594 137.324 28.594C138.616 28.594 139.772 28.526 140.792 28.39C141.812 28.2313 142.617 27.676 143.206 26.724C143.795 25.7493 144.283 24.378 144.668 22.61C144.759 22.1793 144.861 21.964 144.974 21.964C145.087 21.964 145.099 22.3493 145.008 23.12C144.94 23.868 144.906 24.6046 144.906 25.33C144.906 26.0553 144.985 26.6446 145.144 27.098C145.325 27.5513 145.722 27.9706 146.334 28.356C146.969 28.7186 147.286 29.1266 147.286 29.58C147.286 30.056 146.935 30.5206 146.232 30.974C145.529 31.45 144.362 31.8013 142.73 32.028C141.121 32.2773 139.421 32.402 137.63 32.402C135.862 32.402 134.423 32.3 133.312 32.096C132.201 31.9146 131.419 31.5293 130.966 30.94C130.535 30.3733 130.32 29.342 130.32 27.846V25.262Z" fill="#B81C22"/>
  <path d="M166.802 4.69198C164.807 7.70665 162.699 10.166 160.478 12.07C158.257 13.974 156.001 15.47 153.712 16.558C151.445 17.646 150.153 18.19 149.836 18.19C149.768 18.19 149.734 18.1786 149.734 18.156C149.734 18.0653 149.927 17.9066 150.312 17.68C153.667 15.5946 156.307 13.226 158.234 10.574C160.161 7.92198 161.555 4.78265 162.416 1.15598C164.456 1.65465 165.941 2.05131 166.87 2.34598C167.799 2.61798 168.343 2.82198 168.502 2.95798C168.661 3.07131 168.74 3.18465 168.74 3.29798C168.74 3.52465 168.593 3.66065 168.298 3.70598C168.026 3.75131 167.788 3.83065 167.584 3.94398C168.763 6.41465 170.644 8.45465 173.228 10.064C175.812 11.6506 178.702 12.6593 181.898 13.09C182.147 13.1353 182.272 13.192 182.272 13.26C182.272 13.328 182.159 13.4073 181.932 13.498C181.252 13.77 180.583 14.3026 179.926 15.096C179.291 15.8666 178.895 16.592 178.736 17.272C178.691 17.5213 178.521 17.646 178.226 17.646C177.931 17.646 177.251 17.3626 176.186 16.796C175.143 16.2066 174.225 15.5946 173.432 14.96C173.364 15.1413 173.171 15.334 172.854 15.538V28.322C172.854 29.4326 172.865 30.2033 172.888 30.634L172.922 31.858C172.922 32.0393 172.82 32.198 172.616 32.334C172.412 32.4926 172.015 32.6286 171.426 32.742C170.837 32.878 170.259 32.946 169.692 32.946C169.148 32.946 168.797 32.9006 168.638 32.81C168.479 32.742 168.4 32.5833 168.4 32.334V16.66C168.4 15.5266 168.377 14.518 168.332 13.634C170.508 13.8833 171.913 14.0873 172.548 14.246C169.42 11.458 167.505 8.27331 166.802 4.69198ZM158.846 14.076C160.07 14.0986 161.169 14.178 162.144 14.314C163.119 14.4273 163.663 14.5293 163.776 14.62C163.889 14.688 163.946 14.8126 163.946 14.994C163.946 15.1526 163.821 15.3 163.572 15.436C163.323 15.572 163.175 15.7533 163.13 15.98C163.085 16.184 163.062 16.5466 163.062 17.068C163.039 20.196 162.892 22.474 162.62 23.902C162.371 25.3073 161.929 26.486 161.294 27.438C160.682 28.3673 159.809 29.2173 158.676 29.988C157.543 30.7813 156.081 31.484 154.29 32.096C152.499 32.708 151.241 33.014 150.516 33.014C150.357 33.014 150.278 32.9686 150.278 32.878C150.278 32.7873 150.425 32.6966 150.72 32.606C152.851 31.9486 154.596 30.9853 155.956 29.716C157.316 28.4466 158.143 27.0753 158.438 25.602C158.733 24.106 158.88 22.202 158.88 19.89C158.88 17.578 158.869 15.64 158.846 14.076Z" fill="#B81C22"/>
  <path d="M190.534 13.464C188.811 14.008 187.395 14.6313 186.284 15.334C185.967 15.5153 185.717 15.606 185.536 15.606C185.355 15.606 185.196 15.5153 185.06 15.334C184.924 15.1526 184.663 14.518 184.278 13.43C183.915 12.342 183.734 11.6733 183.734 11.424C183.734 11.0613 183.949 10.8573 184.38 10.812C184.833 10.744 185.264 10.5513 185.672 10.234C186.103 9.89398 186.635 8.74931 187.27 6.79998C187.927 4.82798 188.403 2.96931 188.698 1.22398C190.262 1.58665 191.531 1.91531 192.506 2.20998C193.481 2.50465 194.036 2.70865 194.172 2.82198C194.308 2.93531 194.376 3.05998 194.376 3.19598C194.376 3.51331 194.149 3.72865 193.696 3.84198C193.333 3.95531 192.823 4.39731 192.166 5.16798C191.509 5.93865 189.933 8.05798 187.44 11.526L191.69 11.356C192.529 9.70131 193.277 7.91065 193.934 5.98398C196.291 7.16265 197.753 7.92198 198.32 8.26198C198.887 8.57931 199.17 8.86265 199.17 9.11198C199.17 9.33865 198.932 9.51998 198.456 9.65598C197.98 9.76931 197.436 10.166 196.824 10.846L189.14 19.414C190.953 19.3913 192.529 19.3233 193.866 19.21L197.164 18.972C197.572 18.972 197.776 19.04 197.776 19.176C197.776 19.312 197.436 19.4933 196.756 19.72C194.58 20.4906 192.642 21.25 190.942 21.998C189.242 22.746 188.052 23.3466 187.372 23.8C187.009 24.004 186.715 24.106 186.488 24.106C186.261 24.106 186.057 23.9586 185.876 23.664C185.695 23.3693 185.389 22.6666 184.958 21.556C184.55 20.4453 184.346 19.8106 184.346 19.652C184.346 19.4933 184.425 19.312 184.584 19.108C184.765 18.8813 185.015 18.7566 185.332 18.734C185.649 18.6886 186.023 18.5866 186.454 18.428C186.885 18.2466 187.27 18.02 187.61 17.748C187.95 17.476 188.233 17.17 188.46 16.83L189.446 15.3C189.877 14.62 190.239 14.008 190.534 13.464ZM201.652 5.64398H198.592C198.139 5.64398 197.731 5.76865 197.368 6.01798L196.484 4.41998C197.028 4.48798 197.595 4.52198 198.184 4.52198H208.928C209.041 4.24998 209.223 3.89865 209.472 3.46798C209.721 3.03731 209.903 2.79931 210.016 2.75398C210.152 2.70865 210.299 2.68598 210.458 2.68598C210.639 2.68598 210.979 2.84465 211.478 3.16198C211.977 3.45665 212.611 3.86465 213.382 4.38598C214.153 4.90731 214.606 5.23598 214.742 5.37198C214.878 5.50798 214.946 5.64398 214.946 5.77998C214.946 6.07465 214.549 6.35798 213.756 6.62998C213.529 10.302 213.325 12.6026 213.144 13.532C212.985 14.4386 212.668 15.1753 212.192 15.742C211.739 16.3086 211.059 16.7733 210.152 17.136C209.245 17.4986 208.373 17.68 207.534 17.68C206.899 17.68 206.571 17.4306 206.548 16.932C206.503 16.1613 206.265 15.606 205.834 15.266C205.403 14.926 204.712 14.6653 203.76 14.484C203.533 14.4386 203.42 14.382 203.42 14.314C203.42 14.2233 203.465 14.1666 203.556 14.144C203.669 14.1213 204.111 14.11 204.882 14.11C205.675 14.11 206.378 14.0306 206.99 13.872C207.602 13.7133 208.033 13.4753 208.282 13.158C208.554 12.818 208.735 12.444 208.826 12.036C208.917 11.628 209.007 10.8006 209.098 9.55398C209.211 8.28465 209.291 6.98131 209.336 5.64398H206.582C206.219 6.00665 205.981 6.57331 205.868 7.34398C205.619 9.17998 205.154 10.7213 204.474 11.968C203.794 13.192 202.853 14.2573 201.652 15.164C200.451 16.048 199.023 16.8073 197.368 17.442C195.736 18.054 194.807 18.36 194.58 18.36C194.467 18.36 194.41 18.326 194.41 18.258C194.41 18.1673 194.523 18.054 194.75 17.918C196.382 16.9433 197.674 15.9573 198.626 14.96C199.601 13.9626 200.337 12.7273 200.836 11.254C201.357 9.78065 201.629 7.91065 201.652 5.64398ZM202.57 20.026H207.874C208.373 19.142 208.69 18.632 208.826 18.496C208.985 18.3373 209.2 18.258 209.472 18.258C209.767 18.258 210.345 18.5073 211.206 19.006C212.067 19.482 212.736 19.8786 213.212 20.196C213.711 20.4906 213.96 20.7853 213.96 21.08C213.96 21.3746 213.597 21.624 212.872 21.828V29.988C212.872 30.3733 212.883 30.7133 212.906 31.008L212.974 31.756C212.974 31.892 212.872 32.028 212.668 32.164C212.487 32.3 211.977 32.4473 211.138 32.606C210.322 32.7873 209.574 32.878 208.894 32.878C208.713 32.878 208.588 32.844 208.52 32.776C208.475 32.708 208.452 32.572 208.452 32.368V29.852H202.23V31.586C202.23 31.722 202.207 31.824 202.162 31.892C202.117 31.96 201.913 32.062 201.55 32.198C201.187 32.334 200.666 32.4473 199.986 32.538C199.306 32.6513 198.717 32.708 198.218 32.708C198.059 32.708 197.991 32.5946 198.014 32.368C198.059 31.8466 198.082 31.008 198.082 29.852V21.284C198.082 20.332 198.048 19.3686 197.98 18.394C199.975 18.938 201.505 19.482 202.57 20.026ZM208.452 28.73V21.148H202.638C202.547 21.216 202.411 21.284 202.23 21.352V28.73H208.452ZM184.074 26.724C188.041 25.908 192.302 24.8086 196.858 23.426C196.971 23.3806 197.073 23.358 197.164 23.358C197.255 23.358 197.3 23.392 197.3 23.46C197.3 23.528 197.198 23.63 196.994 23.766C191.735 27.1206 188.335 29.4666 186.794 30.804C186.613 30.9626 186.477 31.042 186.386 31.042C186.295 31.042 186.216 30.9966 186.148 30.906C186.08 30.838 185.797 30.3393 185.298 29.41C184.822 28.4806 184.414 27.5853 184.074 26.724Z" fill="#B81C22"/>
  <path d="M248 15.876H296V18.876H248V15.876Z" fill="#B81C22"/>
</svg>