<svg xmlns="http://www.w3.org/2000/svg" width="380" height="34" viewBox="0 0 380 34" fill="none">
  <path d="M0 15.672H48V18.672H0V15.672Z" fill="#B81C22"/>
  <path d="M102.552 6.12L92.726 6.46C92.3633 6.46 92.182 6.392 92.182 6.256C92.182 6.12 92.3747 6.018 92.76 5.95C97.996 5.11133 101.974 4.34066 104.694 3.638C107.437 2.93533 109.76 2.142 111.664 1.258C112.979 2.11933 114.033 2.924 114.826 3.672C115.619 4.39733 116.073 4.83933 116.186 4.998C116.299 5.134 116.356 5.27 116.356 5.406C116.356 5.678 116.186 5.814 115.846 5.814C115.755 5.814 115.665 5.80267 115.574 5.78C115.03 5.644 114.429 5.576 113.772 5.576C113.137 5.576 110.973 5.678 107.278 5.882C107.323 5.95 107.346 6.00667 107.346 6.052C107.346 6.256 107.085 6.48267 106.564 6.732V8.806H114.928C115.291 8.194 115.665 7.582 116.05 6.97C116.458 6.33533 116.696 5.99533 116.764 5.95C116.855 5.90466 116.945 5.882 117.036 5.882C117.263 5.882 118.011 6.43733 119.28 7.548C120.572 8.636 121.218 9.30467 121.218 9.554C121.218 9.80333 121.014 9.928 120.606 9.928H106.564V12.478H110.984C111.664 11.4807 112.083 10.914 112.242 10.778C112.401 10.6193 112.616 10.54 112.888 10.54C113.183 10.54 113.976 11.016 115.268 11.968C116.56 12.8973 117.206 13.5207 117.206 13.838C117.206 14.1327 116.809 14.416 116.016 14.688V18.904L116.084 22.032C116.084 22.2813 116.039 22.44 115.948 22.508C115.88 22.576 115.597 22.7007 115.098 22.882C114.599 23.0633 113.976 23.222 113.228 23.358C112.503 23.494 112.038 23.562 111.834 23.562C111.63 23.562 111.528 23.256 111.528 22.644V22.032H106.564V25.772H112.14L113.534 23.732C113.738 23.4373 113.953 23.29 114.18 23.29C114.429 23.29 115.109 23.766 116.22 24.718C117.353 25.67 117.92 26.2707 117.92 26.52C117.92 26.7693 117.716 26.894 117.308 26.894H106.564V30.362H114.316C115.019 29.2287 115.506 28.4807 115.778 28.118C116.05 27.7553 116.265 27.574 116.424 27.574C116.651 27.574 117.41 28.1067 118.702 29.172C119.994 30.2147 120.64 30.8607 120.64 31.11C120.64 31.3593 120.436 31.484 120.028 31.484H92.046C91.5927 31.484 91.1847 31.6087 90.822 31.858L89.938 30.26C90.482 30.328 91.0487 30.362 91.638 30.362H102.552V26.894H93.984C93.5307 26.894 93.1227 27.0187 92.76 27.268L91.876 25.67C92.42 25.738 92.9867 25.772 93.576 25.772H102.552V22.032H97.69V22.61C97.69 22.9047 97.6333 23.1087 97.52 23.222C97.4067 23.3353 96.8853 23.5053 95.956 23.732C95.0267 23.936 94.2673 24.038 93.678 24.038C93.4967 24.038 93.406 23.9473 93.406 23.766L93.474 22.27C93.5193 21.59 93.542 20.9667 93.542 20.4V13.838C93.542 12.8407 93.508 11.8547 93.44 10.88C95.2533 11.424 96.7153 11.9567 97.826 12.478H102.552V9.928H91.06C90.6067 9.928 90.1987 10.0527 89.836 10.302L88.952 8.704C89.496 8.772 90.0627 8.806 90.652 8.806H102.552V6.12ZM97.69 16.728H102.552V13.6H98.302C98.2113 13.872 98.0073 14.0533 97.69 14.144V16.728ZM106.564 16.728H111.528V13.6H106.564V16.728ZM102.552 17.85H97.69V20.91H102.552V17.85ZM111.528 17.85H106.564V20.91H111.528V17.85Z" fill="#B81C22"/>
  <path d="M133.968 4.692H126.182C125.729 4.692 125.321 4.81666 124.958 5.066L124.074 3.468C124.618 3.536 125.185 3.57 125.774 3.57H148.996C149.676 2.50467 150.129 1.802 150.356 1.462C150.605 1.122 150.798 0.951998 150.934 0.951998C151.07 0.951998 151.365 1.122 151.818 1.462C152.294 1.77933 152.849 2.21 153.484 2.754C154.141 3.27533 154.549 3.64933 154.708 3.876C154.889 4.08 154.98 4.23867 154.98 4.352C154.98 4.57867 154.742 4.692 154.266 4.692H145.154C145.109 4.896 144.939 5.066 144.644 5.202V8.602H146.956C147.296 7.94467 147.557 7.48 147.738 7.208C147.919 6.936 148.089 6.8 148.248 6.8C148.543 6.8 149.381 7.19666 150.764 7.99C152.147 8.78333 152.838 9.37267 152.838 9.758C152.838 10.1207 152.441 10.4267 151.648 10.676V14.586C151.648 15.1527 151.659 15.572 151.682 15.844L151.716 16.592C151.716 16.796 151.603 16.9773 151.376 17.136C151.172 17.2947 150.741 17.4533 150.084 17.612C149.449 17.748 148.713 17.816 147.874 17.816C147.693 17.816 147.579 17.7707 147.534 17.68C147.489 17.5893 147.466 17.442 147.466 17.238V16.524H138.626C139.827 16.8867 140.541 17.1247 140.768 17.238C141.017 17.3513 141.142 17.5213 141.142 17.748C141.142 17.9747 140.949 18.1333 140.564 18.224C140.179 18.3147 139.816 18.5527 139.476 18.938C139.159 19.3233 138.762 19.8447 138.286 20.502H149.37C150.209 19.2327 150.73 18.4733 150.934 18.224C151.161 17.952 151.342 17.816 151.478 17.816C151.614 17.816 151.999 18.054 152.634 18.53C153.269 19.006 153.869 19.5047 154.436 20.026C155.025 20.5473 155.32 20.9213 155.32 21.148C155.32 21.4653 155.003 21.624 154.368 21.624H148.894C148.373 21.896 147.942 22.2927 147.602 22.814C146.899 23.9473 146.106 24.9673 145.222 25.874C147.761 26.3953 149.619 27.064 150.798 27.88C151.977 28.696 152.566 29.6367 152.566 30.702C152.566 31.3593 152.339 31.926 151.886 32.402C151.433 32.878 150.877 33.116 150.22 33.116C149.585 33.116 148.713 32.5267 147.602 31.348C146.491 30.192 144.814 29.1607 142.57 28.254C140.122 29.9313 136.801 31.076 132.608 31.688C128.415 32.3227 125.547 32.64 124.006 32.64C123.711 32.64 123.564 32.5833 123.564 32.47C123.564 32.3567 123.779 32.2547 124.21 32.164C130.761 30.804 135.555 29.0813 138.592 26.996C135.759 26.316 132.71 25.908 129.446 25.772C130.965 24.1853 132.143 22.8027 132.982 21.624H125.672C124.924 21.624 124.493 21.658 124.38 21.726L123.802 20.332C124.255 20.4453 124.777 20.502 125.366 20.502H133.696C134.625 18.9607 135.339 17.6347 135.838 16.524H131.146V16.932C131.146 17.1587 131.044 17.3513 130.84 17.51C130.659 17.646 130.239 17.7933 129.582 17.952C128.925 18.088 128.245 18.156 127.542 18.156C127.315 18.156 127.213 18.0653 127.236 17.884C127.327 17.0907 127.372 16.2067 127.372 15.232V10.064C127.372 8.908 127.349 7.97866 127.304 7.276C128.573 7.52533 129.865 7.96733 131.18 8.602H133.968V4.692ZM140.904 4.692H138.184C138.116 5.07733 137.912 5.338 137.572 5.474V8.602H140.904V4.692ZM133.968 15.402V9.724H131.622C131.577 9.97333 131.418 10.1773 131.146 10.336V15.402H133.968ZM144.644 9.724V15.402H147.466V9.724H144.644ZM140.904 15.402V9.724H137.572V15.402H140.904ZM143.114 21.624H137.402C136.518 22.78 135.611 23.8567 134.682 24.854C137.221 24.922 139.227 25.0467 140.7 25.228C141.765 24.14 142.57 22.9387 143.114 21.624Z" fill="#B81C22"/>
  <path d="M178.882 9.35C178.814 9.486 178.644 9.622 178.372 9.758V15.606H181.908C182.815 14.0647 183.336 13.192 183.472 12.988C183.631 12.784 183.823 12.682 184.05 12.682C184.277 12.682 184.639 12.9087 185.138 13.362C185.637 13.8153 186.181 14.3253 186.77 14.892C187.359 15.436 187.654 15.878 187.654 16.218C187.654 16.558 187.303 16.728 186.6 16.728H178.372V23.018H182.69C183.053 22.338 183.415 21.7147 183.778 21.148C184.141 20.5587 184.379 20.196 184.492 20.06C184.628 19.924 184.764 19.856 184.9 19.856C185.059 19.856 185.478 20.128 186.158 20.672C186.838 21.216 187.45 21.76 187.994 22.304C188.538 22.848 188.81 23.29 188.81 23.63C188.81 23.97 188.459 24.14 187.756 24.14H178.372V27.982C178.372 28.73 178.383 29.5233 178.406 30.362L178.474 31.518C178.474 31.6767 178.417 31.8013 178.304 31.892C178.213 32.0053 177.817 32.1753 177.114 32.402C176.434 32.6513 175.516 32.776 174.36 32.776C174.224 32.776 174.133 32.742 174.088 32.674C174.043 32.606 174.02 32.4587 174.02 32.232L174.088 30.906C174.111 29.9993 174.122 28.9793 174.122 27.846V9.35H173.748C172.705 11.186 171.436 12.9993 169.94 14.79C168.444 16.5807 167.583 17.476 167.356 17.476C167.288 17.476 167.254 17.4307 167.254 17.34C167.254 17.2493 167.333 17.068 167.492 16.796C169.94 12.444 171.47 7.14 172.082 0.883999C173.351 1.11067 174.507 1.37133 175.55 1.666C176.593 1.938 177.205 2.142 177.386 2.278C177.59 2.39133 177.692 2.53867 177.692 2.72C177.692 2.87866 177.545 3.01467 177.25 3.128C176.978 3.21867 176.661 3.638 176.298 4.386C175.595 5.92733 174.961 7.208 174.394 8.228H182.656C183.812 6.41466 184.447 5.44 184.56 5.304C184.673 5.168 184.798 5.1 184.934 5.1C185.093 5.1 185.331 5.21333 185.648 5.44C185.988 5.66667 186.543 6.13133 187.314 6.834C188.085 7.514 188.538 7.956 188.674 8.16C188.833 8.34133 188.912 8.534 188.912 8.738C188.912 9.146 188.561 9.35 187.858 9.35H178.882ZM162.596 14.688C161.372 16.3653 160.205 17.7593 159.094 18.87C157.983 19.958 157.326 20.502 157.122 20.502C157.077 20.502 157.054 20.468 157.054 20.4C157.054 20.3093 157.145 20.128 157.326 19.856C159.253 16.864 160.669 14.0307 161.576 11.356C162.483 8.68133 163.242 5.42867 163.854 1.598C165.35 1.938 166.54 2.26666 167.424 2.584C168.308 2.90133 168.863 3.13933 169.09 3.298C169.317 3.434 169.43 3.58133 169.43 3.74C169.43 3.876 169.305 3.98933 169.056 4.08C168.807 4.17067 168.603 4.318 168.444 4.522C168.308 4.726 168.025 5.304 167.594 6.256C167.163 7.208 166.483 8.51133 165.554 10.166C166.642 10.506 167.186 10.7893 167.186 11.016C167.186 11.22 166.948 11.424 166.472 11.628V31.314C166.472 31.4953 166.438 31.6313 166.37 31.722C166.302 31.8127 166.064 31.9373 165.656 32.096C165.271 32.2547 164.761 32.3907 164.126 32.504C163.514 32.6173 163.038 32.674 162.698 32.674C162.539 32.674 162.46 32.5607 162.46 32.334L162.562 29.138C162.585 28.1407 162.596 27.2 162.596 26.316V14.688Z" fill="#B81C22"/>
  <path d="M202.036 3.672H210.774C210.887 3.44533 211.114 3.06 211.454 2.516C211.794 1.972 212.021 1.666 212.134 1.598C212.247 1.53 212.349 1.496 212.44 1.496C212.689 1.496 213.539 1.91533 214.99 2.754C216.463 3.59267 217.2 4.216 217.2 4.624C217.2 5.032 216.781 5.36066 215.942 5.61V11.05C215.942 12.2513 215.953 13.022 215.976 13.362L216.01 14.314C216.01 14.4953 215.953 14.6427 215.84 14.756C215.749 14.8467 215.534 14.96 215.194 15.096C214.854 15.232 214.355 15.3567 213.698 15.47C213.063 15.5833 212.531 15.64 212.1 15.64C211.669 15.64 211.454 15.2887 211.454 14.586V13.362H201.73V14.688C201.73 14.9147 201.673 15.0733 201.56 15.164C201.469 15.2547 201.243 15.402 200.88 15.606C200.517 15.7873 199.939 15.9233 199.146 16.014C198.353 16.082 197.843 16.116 197.616 16.116C197.412 16.116 197.31 15.9687 197.31 15.674L197.446 12.308V5.168C197.446 4.23866 197.412 3.17333 197.344 1.972C199.044 2.448 200.608 3.01466 202.036 3.672ZM211.454 12.24V4.794H202.274C202.138 5.04333 201.957 5.21333 201.73 5.304V12.24H211.454ZM212.576 18.224H216.214C216.282 18.0653 216.509 17.7027 216.894 17.136C217.279 16.5467 217.529 16.218 217.642 16.15C217.755 16.082 217.869 16.048 217.982 16.048C218.277 16.048 219.093 16.4673 220.43 17.306C221.767 18.1447 222.436 18.7567 222.436 19.142C222.436 19.5273 222.085 19.822 221.382 20.026V27.166C221.382 28.3673 221.393 29.138 221.416 29.478L221.45 30.43C221.45 30.6567 221.314 30.8607 221.042 31.042C220.77 31.2233 220.283 31.382 219.58 31.518C218.9 31.6767 218.186 31.756 217.438 31.756C217.211 31.756 217.064 31.6767 216.996 31.518C216.928 31.382 216.894 31.144 216.894 30.804V28.968H212.134V30.6C212.134 30.872 212.009 31.0873 211.76 31.246C211.533 31.4047 211.023 31.5747 210.23 31.756C209.459 31.9373 208.813 32.028 208.292 32.028C208.02 32.028 207.884 31.8807 207.884 31.586L208.02 28.22V19.788C208.02 18.8587 207.986 17.7933 207.918 16.592C209.731 17 211.284 17.544 212.576 18.224ZM216.894 27.846V19.346H212.644C212.508 19.55 212.338 19.6973 212.134 19.788V27.846H216.894ZM197.174 18.326H200.608C201.22 17.3513 201.605 16.7733 201.764 16.592C201.923 16.4107 202.081 16.32 202.24 16.32C202.421 16.32 202.931 16.558 203.77 17.034C204.609 17.51 205.289 17.9407 205.81 18.326C206.331 18.7113 206.592 19.0287 206.592 19.278C206.592 19.6633 206.218 19.9807 205.47 20.23V26.928C205.47 28.1293 205.481 28.9 205.504 29.24L205.538 30.192C205.538 30.3733 205.481 30.5207 205.368 30.634C205.255 30.7473 205.039 30.872 204.722 31.008C204.427 31.144 203.963 31.2573 203.328 31.348C202.716 31.4613 202.263 31.518 201.968 31.518C201.673 31.518 201.492 31.4387 201.424 31.28C201.356 31.144 201.322 30.906 201.322 30.566V29.002H196.63V30.838C196.63 31.11 196.505 31.3253 196.256 31.484C196.029 31.6653 195.531 31.8353 194.76 31.994C194.012 32.1753 193.355 32.266 192.788 32.266C192.516 32.266 192.38 32.1187 192.38 31.824L192.516 28.458V19.686C192.516 18.7567 192.482 17.6913 192.414 16.49C194.25 17.034 195.837 17.646 197.174 18.326ZM201.322 27.88V19.448H197.14C197.004 19.652 196.834 19.7993 196.63 19.89V27.88H201.322Z" fill="#B81C22"/>
  <path d="M242.802 4.488C240.807 7.50266 238.699 9.962 236.478 11.866C234.257 13.77 232.001 15.266 229.712 16.354C227.445 17.442 226.153 17.986 225.836 17.986C225.768 17.986 225.734 17.9747 225.734 17.952C225.734 17.8613 225.927 17.7027 226.312 17.476C229.667 15.3907 232.307 13.022 234.234 10.37C236.161 7.718 237.555 4.57867 238.416 0.951998C240.456 1.45066 241.941 1.84733 242.87 2.142C243.799 2.414 244.343 2.618 244.502 2.754C244.661 2.86733 244.74 2.98067 244.74 3.094C244.74 3.32067 244.593 3.45666 244.298 3.502C244.026 3.54733 243.788 3.62667 243.584 3.74C244.763 6.21066 246.644 8.25066 249.228 9.86C251.812 11.4467 254.702 12.4553 257.898 12.886C258.147 12.9313 258.272 12.988 258.272 13.056C258.272 13.124 258.159 13.2033 257.932 13.294C257.252 13.566 256.583 14.0987 255.926 14.892C255.291 15.6627 254.895 16.388 254.736 17.068C254.691 17.3173 254.521 17.442 254.226 17.442C253.931 17.442 253.251 17.1587 252.186 16.592C251.143 16.0027 250.225 15.3907 249.432 14.756C249.364 14.9373 249.171 15.13 248.854 15.334V28.118C248.854 29.2287 248.865 29.9993 248.888 30.43L248.922 31.654C248.922 31.8353 248.82 31.994 248.616 32.13C248.412 32.2887 248.015 32.4247 247.426 32.538C246.837 32.674 246.259 32.742 245.692 32.742C245.148 32.742 244.797 32.6967 244.638 32.606C244.479 32.538 244.4 32.3793 244.4 32.13V16.456C244.4 15.3227 244.377 14.314 244.332 13.43C246.508 13.6793 247.913 13.8833 248.548 14.042C245.42 11.254 243.505 8.06933 242.802 4.488ZM234.846 13.872C236.07 13.8947 237.169 13.974 238.144 14.11C239.119 14.2233 239.663 14.3253 239.776 14.416C239.889 14.484 239.946 14.6087 239.946 14.79C239.946 14.9487 239.821 15.096 239.572 15.232C239.323 15.368 239.175 15.5493 239.13 15.776C239.085 15.98 239.062 16.3427 239.062 16.864C239.039 19.992 238.892 22.27 238.62 23.698C238.371 25.1033 237.929 26.282 237.294 27.234C236.682 28.1633 235.809 29.0133 234.676 29.784C233.543 30.5773 232.081 31.28 230.29 31.892C228.499 32.504 227.241 32.81 226.516 32.81C226.357 32.81 226.278 32.7647 226.278 32.674C226.278 32.5833 226.425 32.4927 226.72 32.402C228.851 31.7447 230.596 30.7813 231.956 29.512C233.316 28.2427 234.143 26.8713 234.438 25.398C234.733 23.902 234.88 21.998 234.88 19.686C234.88 17.374 234.869 15.436 234.846 13.872Z" fill="#B81C22"/>
  <path d="M266.534 13.26C264.811 13.804 263.395 14.4273 262.284 15.13C261.967 15.3113 261.717 15.402 261.536 15.402C261.355 15.402 261.196 15.3113 261.06 15.13C260.924 14.9487 260.663 14.314 260.278 13.226C259.915 12.138 259.734 11.4693 259.734 11.22C259.734 10.8573 259.949 10.6533 260.38 10.608C260.833 10.54 261.264 10.3473 261.672 10.03C262.103 9.69 262.635 8.54533 263.27 6.596C263.927 4.624 264.403 2.76533 264.698 1.02C266.262 1.38266 267.531 1.71133 268.506 2.006C269.481 2.30067 270.036 2.50467 270.172 2.618C270.308 2.73133 270.376 2.856 270.376 2.992C270.376 3.30933 270.149 3.52466 269.696 3.638C269.333 3.75133 268.823 4.19333 268.166 4.964C267.509 5.73466 265.933 7.854 263.44 11.322L267.69 11.152C268.529 9.49733 269.277 7.70667 269.934 5.78C272.291 6.95866 273.753 7.718 274.32 8.058C274.887 8.37533 275.17 8.65866 275.17 8.908C275.17 9.13467 274.932 9.316 274.456 9.452C273.98 9.56533 273.436 9.962 272.824 10.642L265.14 19.21C266.953 19.1873 268.529 19.1193 269.866 19.006L273.164 18.768C273.572 18.768 273.776 18.836 273.776 18.972C273.776 19.108 273.436 19.2893 272.756 19.516C270.58 20.2867 268.642 21.046 266.942 21.794C265.242 22.542 264.052 23.1427 263.372 23.596C263.009 23.8 262.715 23.902 262.488 23.902C262.261 23.902 262.057 23.7547 261.876 23.46C261.695 23.1653 261.389 22.4627 260.958 21.352C260.55 20.2413 260.346 19.6067 260.346 19.448C260.346 19.2893 260.425 19.108 260.584 18.904C260.765 18.6773 261.015 18.5527 261.332 18.53C261.649 18.4847 262.023 18.3827 262.454 18.224C262.885 18.0427 263.27 17.816 263.61 17.544C263.95 17.272 264.233 16.966 264.46 16.626L265.446 15.096C265.877 14.416 266.239 13.804 266.534 13.26ZM277.652 5.44H274.592C274.139 5.44 273.731 5.56467 273.368 5.814L272.484 4.216C273.028 4.284 273.595 4.318 274.184 4.318H284.928C285.041 4.046 285.223 3.69466 285.472 3.264C285.721 2.83333 285.903 2.59533 286.016 2.55C286.152 2.50466 286.299 2.482 286.458 2.482C286.639 2.482 286.979 2.64067 287.478 2.958C287.977 3.25267 288.611 3.66067 289.382 4.182C290.153 4.70333 290.606 5.032 290.742 5.168C290.878 5.304 290.946 5.44 290.946 5.576C290.946 5.87066 290.549 6.154 289.756 6.426C289.529 10.098 289.325 12.3987 289.144 13.328C288.985 14.2347 288.668 14.9713 288.192 15.538C287.739 16.1047 287.059 16.5693 286.152 16.932C285.245 17.2947 284.373 17.476 283.534 17.476C282.899 17.476 282.571 17.2267 282.548 16.728C282.503 15.9573 282.265 15.402 281.834 15.062C281.403 14.722 280.712 14.4613 279.76 14.28C279.533 14.2347 279.42 14.178 279.42 14.11C279.42 14.0193 279.465 13.9627 279.556 13.94C279.669 13.9173 280.111 13.906 280.882 13.906C281.675 13.906 282.378 13.8267 282.99 13.668C283.602 13.5093 284.033 13.2713 284.282 12.954C284.554 12.614 284.735 12.24 284.826 11.832C284.917 11.424 285.007 10.5967 285.098 9.35C285.211 8.08066 285.291 6.77733 285.336 5.44H282.582C282.219 5.80267 281.981 6.36933 281.868 7.14C281.619 8.976 281.154 10.5173 280.474 11.764C279.794 12.988 278.853 14.0533 277.652 14.96C276.451 15.844 275.023 16.6033 273.368 17.238C271.736 17.85 270.807 18.156 270.58 18.156C270.467 18.156 270.41 18.122 270.41 18.054C270.41 17.9633 270.523 17.85 270.75 17.714C272.382 16.7393 273.674 15.7533 274.626 14.756C275.601 13.7587 276.337 12.5233 276.836 11.05C277.357 9.57666 277.629 7.70667 277.652 5.44ZM278.57 19.822H283.874C284.373 18.938 284.69 18.428 284.826 18.292C284.985 18.1333 285.2 18.054 285.472 18.054C285.767 18.054 286.345 18.3033 287.206 18.802C288.067 19.278 288.736 19.6747 289.212 19.992C289.711 20.2867 289.96 20.5813 289.96 20.876C289.96 21.1707 289.597 21.42 288.872 21.624V29.784C288.872 30.1693 288.883 30.5093 288.906 30.804L288.974 31.552C288.974 31.688 288.872 31.824 288.668 31.96C288.487 32.096 287.977 32.2433 287.138 32.402C286.322 32.5833 285.574 32.674 284.894 32.674C284.713 32.674 284.588 32.64 284.52 32.572C284.475 32.504 284.452 32.368 284.452 32.164V29.648H278.23V31.382C278.23 31.518 278.207 31.62 278.162 31.688C278.117 31.756 277.913 31.858 277.55 31.994C277.187 32.13 276.666 32.2433 275.986 32.334C275.306 32.4473 274.717 32.504 274.218 32.504C274.059 32.504 273.991 32.3907 274.014 32.164C274.059 31.6427 274.082 30.804 274.082 29.648V21.08C274.082 20.128 274.048 19.1647 273.98 18.19C275.975 18.734 277.505 19.278 278.57 19.822ZM284.452 28.526V20.944H278.638C278.547 21.012 278.411 21.08 278.23 21.148V28.526H284.452ZM260.074 26.52C264.041 25.704 268.302 24.6047 272.858 23.222C272.971 23.1767 273.073 23.154 273.164 23.154C273.255 23.154 273.3 23.188 273.3 23.256C273.3 23.324 273.198 23.426 272.994 23.562C267.735 26.9167 264.335 29.2627 262.794 30.6C262.613 30.7587 262.477 30.838 262.386 30.838C262.295 30.838 262.216 30.7927 262.148 30.702C262.08 30.634 261.797 30.1353 261.298 29.206C260.822 28.2767 260.414 27.3813 260.074 26.52Z" fill="#B81C22"/>
  <path d="M332 15.672H380V18.672H332V15.672Z" fill="#B81C22"/>
</svg>